<svg xmlns="http://www.w3.org/2000/svg" width="40" height="40" viewBox="0 0 40 40">
  <g id="insta-logo" transform="translate(0.177 0)">
    <rect id="Bg_Supp." data-name="Bg Supp." width="40" height="40" transform="translate(-0.177 0)" fill="#fff" opacity="0"/>
    <path id="Icon_awesome-instagram" data-name="Icon awesome-instagram" d="M12.8,8.473a6.562,6.562,0,1,0,6.562,6.562A6.552,6.552,0,0,0,12.8,8.473Zm0,10.828a4.266,4.266,0,1,1,4.266-4.266A4.274,4.274,0,0,1,12.8,19.3ZM21.159,8.2a1.531,1.531,0,1,1-1.531-1.531A1.527,1.527,0,0,1,21.159,8.2ZM25.5,9.758A7.574,7.574,0,0,0,23.437,4.4a7.624,7.624,0,0,0-5.363-2.067c-2.113-.12-8.447-.12-10.56,0A7.613,7.613,0,0,0,2.152,4.389,7.6,7.6,0,0,0,.085,9.752c-.12,2.113-.12,8.447,0,10.56a7.574,7.574,0,0,0,2.067,5.363,7.634,7.634,0,0,0,5.363,2.067c2.113.12,8.447.12,10.56,0a7.574,7.574,0,0,0,5.363-2.067A7.624,7.624,0,0,0,25.5,20.312c.12-2.113.12-8.441,0-10.554Zm-2.73,12.821a4.319,4.319,0,0,1-2.433,2.433c-1.685.668-5.683.514-7.544.514s-5.865.148-7.544-.514A4.319,4.319,0,0,1,2.82,22.579c-.668-1.685-.514-5.683-.514-7.544S2.158,9.17,2.82,7.49A4.319,4.319,0,0,1,5.253,5.058c1.685-.668,5.683-.514,7.544-.514s5.865-.148,7.544.514A4.319,4.319,0,0,1,22.775,7.49c.668,1.685.514,5.683.514,7.544S23.443,20.9,22.775,22.579Z" transform="translate(7.064 4.821)" fill="#fff"/>
  </g>
</svg>
