<svg xmlns="http://www.w3.org/2000/svg" width="40" height="40" viewBox="0 0 40 40">
  <g id="twitter-logo" transform="translate(0.118 0)">
    <rect id="Bg_Supp." data-name="Bg Supp." width="40" height="40" transform="translate(-0.118 0)" fill="#fff" opacity="0"/>
    <path id="Path_00000074412185549616444220000006885273090771657638_" d="M26.791,29.68V43.137H22.318V29.68Zm.3-4.138a2.063,2.063,0,0,1-.671,1.64,2.529,2.529,0,0,1-1.827.671h-.037a2.442,2.442,0,0,1-1.789-.671,2.167,2.167,0,0,1-.671-1.64,2.227,2.227,0,0,1,.708-1.677,2.7,2.7,0,0,1,1.827-.671,2.442,2.442,0,0,1,1.789.671,2.336,2.336,0,0,1,.671,1.677Zm15.805,9.878v7.716H38.459V35.943a3.929,3.929,0,0,0-.559-2.237,1.931,1.931,0,0,0-1.715-.82,2.179,2.179,0,0,0-1.417.485,2.938,2.938,0,0,0-.857,1.156,3.6,3.6,0,0,0-.149,1.081V43.1H29.289c0-3.616.037-6.523.037-8.76V29.68H33.8v1.938h-.037a3.545,3.545,0,0,1,.559-.746,4.8,4.8,0,0,1,.783-.708,3.266,3.266,0,0,1,1.193-.6,5.675,5.675,0,0,1,1.566-.224,4.844,4.844,0,0,1,3.728,1.528A7.141,7.141,0,0,1,42.895,35.421Z" transform="translate(-12.322 -13.413)" fill="#fff"/>
  </g>
</svg>
