<svg xmlns="http://www.w3.org/2000/svg" width="74.936" height="57.594" viewBox="0 0 74.936 57.594">
  <path id="quote-icon" d="M13.262-26.618H39.88v19.04q0,11.557-1.989,18.235A27.24,27.24,0,0,1,30.36,22.64a38.813,38.813,0,0,1-14.067,8.336l-5.21-10.988q8.052-2.652,11.462-7.294T26.145,0H13.262Zm46.139,0H86.019v19.04q0,11.557-1.989,18.235A27.24,27.24,0,0,1,76.5,22.64a38.813,38.813,0,0,1-14.067,8.336l-5.21-10.988q8.052-2.652,11.462-7.294T72.284,0H59.4Z" transform="translate(86.019 30.976) rotate(180)" fill="#e71013"/>
</svg>
