<svg xmlns="http://www.w3.org/2000/svg" width="132" height="111.394" viewBox="0 0 132 111.394">
  <g id="quote-icon" transform="translate(-380 -4065.402)" opacity="0.27">
    <path id="quote-icon-2" data-name="quote-icon" d="M4.214,0H55.7V36.826q0,22.352-3.847,35.269A52.685,52.685,0,0,1,37.284,95.271q-10.718,10.26-27.207,16.123L0,90.141q15.573-5.13,22.169-14.107t6.962-24.551H4.214Z" transform="translate(435.697 4176.796) rotate(180)" fill="#fff"/>
    <path id="quote-icon-3" data-name="quote-icon" d="M4.214,0H55.7V36.826q0,22.352-3.847,35.269A52.685,52.685,0,0,1,37.284,95.271q-10.718,10.26-27.207,16.123L0,90.141q15.573-5.13,22.169-14.107t6.962-24.551H4.214Z" transform="translate(512 4176.796) rotate(180)" fill="#fff"/>
  </g>
</svg>
